%
M48
M72
T01C0.02362
T02C0.04000
T03C0.04700
T04C0.11024
%
T01
X115717Y135696
X139693Y135735
X157449Y148885
X175756Y111286
X210992Y138058
X210992Y143963
X205481Y143963
X199969Y143963
X199969Y149869
X205481Y149869
X210992Y149869
X268866Y161286
X268866Y169160
X268866Y177428
X269260Y203412
X269260Y211680
T02
X169103Y172940
X179103Y172940
X189103Y172940
T03
X98788Y108530
X118473Y108530
X139339Y108530
X159024Y108530
X234614Y108530
X254299Y108530
T04
X98000Y232940
X204299Y98688
X268433Y233333
M30
